<?xml version="1.0" encoding="utf-8"?>
<!-- Generator: Adobe Illustrator 16.0.0, SVG Export Plug-In . SVG Version: 6.00 Build 0)  -->
<!DOCTYPE svg PUBLIC "-//W3C//DTD SVG 1.1//EN" "http://www.w3.org/Graphics/SVG/1.1/DTD/svg11.dtd">
<svg version="1.1" id="Layer_1" xmlns="http://www.w3.org/2000/svg" xmlns:xlink="http://www.w3.org/1999/xlink" x="0px" y="0px"
	 width="188.629px" height="90.894px" viewBox="0 0 188.629 90.894" enable-background="new 0 0 188.629 90.894"
	 xml:space="preserve">
<g>
	<path fill="#161D25" d="M54.634,51.729c0,2.623-0.153,5.348-0.459,8.174c-0.307,2.827-0.8,5.596-1.48,8.31
		c-0.681,2.713-1.583,5.28-2.706,7.7c-1.124,2.419-2.502,4.545-4.136,6.377c-1.633,1.832-3.545,3.285-5.735,4.359
		c-2.189,1.074-4.691,1.611-7.504,1.611c-0.523,0-1.148-0.034-1.875-0.102c-0.728-0.068-1.48-0.206-2.259-0.414
		s-1.568-0.418-2.369-0.631c-0.801-0.213-1.508-0.514-2.122-0.899c-0.614-0.387-1.114-0.835-1.5-1.347
		c-0.387-0.511-0.58-1.097-0.58-1.755c0-0.341,0.075-0.79,0.225-1.346c0.149-0.557,0.379-1.097,0.689-1.619
		c0.311-0.523,0.702-0.978,1.173-1.364c0.471-0.387,1.041-0.58,1.708-0.58c0.759-0.129,1.516-0.062,2.271,0.205
		c0.755,0.266,1.551,0.546,2.388,0.841c0.836,0.294,1.696,0.598,2.58,0.908c0.883,0.312,1.775,0.467,2.676,0.467
		c1.008,0,2-0.525,2.977-1.574c0.977-1.05,1.899-2.417,2.769-4.1c0.869-1.684,1.663-3.57,2.382-5.657
		c0.719-2.088,1.325-4.183,1.819-6.281c-1.091,0.906-2.245,1.766-3.46,2.579c-1.216,0.813-2.603,1.524-4.159,2.132
		s-3.335,1.091-5.334,1.452c-2,0.36-4.318,0.541-6.954,0.541c-3.068,0-6.051-0.619-8.948-1.858s-5.221-2.909-6.971-5.011
		c-1.75-2.102-3.097-4.545-4.04-7.329s-1.415-5.71-1.415-8.778c0-4.022,0.482-7.869,1.449-11.539
		c0.966-3.67,2.301-7.079,4.005-10.227c1.705-3.147,3.716-6,6.034-8.556s4.818-4.738,7.5-6.545c2.681-1.807,5.494-3.205,8.437-4.193
		c2.943-0.989,5.892-1.483,8.846-1.483c1.823,0,3.515,0.273,5.076,0.818c1.56,0.545,2.917,1.397,4.067,2.557
		c1.15,1.159,2.05,2.625,2.7,4.397c0.65,1.773,0.975,3.886,0.975,6.341c0,0.954-0.114,1.904-0.341,2.846
		c-0.228,0.943-0.603,1.892-1.125,2.846c-0.728,1.069-1.432,1.824-2.113,2.267c-0.682,0.443-1.33,0.665-1.943,0.665
		c-0.477,0-0.92-0.124-1.329-0.372c-0.409-0.249-0.762-0.576-1.057-0.983c-0.295-0.406-0.528-0.864-0.699-1.372
		c-0.17-0.508-0.255-1.032-0.255-1.575c0-0.428,0.066-0.846,0.199-1.253c0.132-0.406,0.271-0.813,0.415-1.219
		c0.144-0.406,0.282-0.83,0.415-1.271c0.132-0.44,0.199-0.898,0.199-1.372c0-2.258-0.5-3.952-1.5-5.081
		c-1-1.129-2.25-1.694-3.75-1.694c-1.841,0-3.779,0.38-5.813,1.139c-2.034,0.76-4.028,1.858-5.982,3.298
		c-1.955,1.439-3.813,3.207-5.573,5.303c-1.761,2.097-3.313,4.493-4.653,7.189c-1.341,2.697-2.403,5.671-3.187,8.923
		c-0.784,3.252-1.176,6.747-1.176,10.486c0,2.479,0.29,4.638,0.869,6.479c0.58,1.841,1.62,3.375,3.119,4.602
		c1.5,1.227,3.022,2.142,4.568,2.743c1.545,0.603,3.284,0.902,5.216,0.902c3.59,0,6.897-0.515,9.919-1.546
		c3.022-1.031,5.863-2.48,8.522-4.348c0.182-0.728,0.341-1.425,0.477-2.092c0.136-0.667,0.205-1.28,0.205-1.838
		c0-0.728-0.092-1.304-0.274-1.728c-0.183-0.424-0.428-0.74-0.736-0.946c-0.308-0.207-0.673-0.334-1.095-0.382
		c-0.422-0.048-0.873-0.073-1.351-0.073c-0.868,0-1.626-0.113-2.276-0.341c-0.651-0.227-1.204-0.522-1.66-0.886
		c-0.457-0.363-0.799-0.784-1.027-1.261c-0.228-0.477-0.342-0.955-0.342-1.432c0-0.478,0.107-0.938,0.324-1.381
		c0.216-0.443,0.551-0.835,1.006-1.176c0.454-0.341,1.028-0.619,1.721-0.835c0.693-0.216,1.505-0.324,2.438-0.324
		c2.204,0,4.017,0.231,5.437,0.694c1.42,0.462,2.534,1.145,3.341,2.046c0.806,0.902,1.363,2.007,1.67,3.313
		C54.481,48.578,54.634,50.064,54.634,51.729z"/>
	<path fill="#161D25" d="M86.064,31.401c0,0.614-0.021,1.45-0.061,2.506c-0.042,1.057-0.178,2.211-0.411,3.462
		c-0.232,1.25-0.514,2.763-0.844,4.538c-0.33,1.774-0.603,3.243-0.819,4.403c-0.216,1.162-0.405,2.178-0.567,3.048
		c-0.162,0.871-0.243,1.503-0.243,1.899c0,0.639,0.009,1.227,0.029,1.763c0.02,0.537,0.079,1.004,0.176,1.403
		c0.098,0.399,0.25,0.708,0.457,0.924c0.207,0.217,0.507,0.325,0.9,0.325c0.5,0,1.108-0.125,1.824-0.376
		c0.716-0.251,1.477-0.587,2.284-1.01c0.806-0.422,1.63-0.901,2.471-1.437c0.84-0.536,1.642-1.101,2.403-1.694
		c0.761-0.593,1.454-1.181,2.08-1.763c0.625-0.582,1.13-1.124,1.517-1.625c0,0.753,0.005,1.438,0.017,2.053
		c0.011,0.616,0.017,1.204,0.017,1.762c0,0.56,0.005,1.135,0.017,1.729c0.011,0.593,0.017,1.255,0.017,1.985
		c-0.5,0.493-1.12,1.021-1.858,1.581c-0.739,0.561-1.557,1.122-2.454,1.682c-0.898,0.561-1.853,1.098-2.864,1.614
		c-1.012,0.516-2.028,0.97-3.051,1.363c-1.022,0.393-2.022,0.706-2.998,0.941c-0.976,0.235-1.88,0.354-2.714,0.354
		c-0.849,0-1.576-0.168-2.179-0.504s-1.123-0.807-1.558-1.412c-0.436-0.605-0.804-1.327-1.105-2.167
		c-0.301-0.84-0.564-1.775-0.787-2.807c-0.819,1.054-1.684,2.024-2.594,2.91c-0.91,0.886-1.837,1.654-2.782,2.304
		c-0.944,0.65-1.9,1.161-2.867,1.53c-0.968,0.37-1.906,0.555-2.816,0.555c-0.747,0-1.449-0.125-2.105-0.375
		c-0.656-0.25-1.239-0.67-1.749-1.261c-0.509-0.59-0.911-1.369-1.205-2.334c-0.294-0.965-0.441-2.163-0.441-3.594
		c0.023-2.976,0.251-5.259,0.682-6.85c0.681-2.319,1.315-5.776,1.905-10.37c0.062-0.335,0.146-0.794,0.253-1.375
		c0.106-0.582,0.268-1.214,0.484-1.896c0.216-0.682,0.482-1.375,0.801-2.079s0.693-1.341,1.125-1.909
		c0.432-0.568,0.938-1.034,1.517-1.397s1.232-0.557,1.96-0.58c1.205,0.058,2.068,0.254,2.591,0.586
		c0.522,0.333,0.784,0.745,0.784,1.236c-0.205,1.533-0.435,3.005-0.689,4.419c-0.255,1.414-0.511,2.838-0.769,4.273
		c-0.258,1.435-0.545,3.031-0.86,4.787c-0.315,1.757-0.569,3.165-0.759,4.225c-0.191,1.06-0.345,1.917-0.462,2.57
		s-0.176,0.993-0.176,1.016c0,0.422,0.04,0.827,0.12,1.214s0.2,0.733,0.359,1.038c0.16,0.304,0.365,0.551,0.616,0.738
		s0.547,0.281,0.89,0.281c0.501,0,1.015-0.132,1.54-0.399c0.524-0.266,1.015-0.653,1.471-1.163c0.479-0.462,0.901-1.064,1.265-1.805
		c0.365-0.717,0.639-1.55,0.822-2.499l3.758-18.577c0.11-0.545,0.554-1.005,1.333-1.38s1.662-0.563,2.65-0.563
		c1.118,0,2.007,0.205,2.666,0.614C85.735,30.242,86.064,30.766,86.064,31.401z"/>
	<path fill="#161D25" d="M114.255,55.911c-0.818,0.75-1.835,1.551-3.051,2.403c-1.216,0.853-2.528,1.636-3.937,2.353
		c-1.41,0.716-2.847,1.312-4.313,1.79c-1.466,0.477-2.858,0.716-4.176,0.716c-1.182,0-2.176-0.165-2.983-0.495
		c-0.807-0.329-1.46-0.789-1.96-1.38c-0.5-0.591-0.858-1.313-1.074-2.165c-0.216-0.852-0.324-1.79-0.324-2.813
		c0-1.432,0.159-3.102,0.477-5.011c0.655-3.949,1.076-6.167,1.263-6.654c0.31-0.97,0.929-3.121,1.859-6.451
		c0.862-2.714,1.395-4.481,1.598-5.3c0.111-0.574,0.424-1.091,0.938-1.551c0.469-0.413,0.999-0.753,1.59-1.017
		s1.206-0.459,1.842-0.586c0.636-0.126,1.211-0.189,1.725-0.189c0.938,0,1.574,0.176,1.909,0.528
		c0.334,0.353,0.502,0.824,0.502,1.415c0,0.5-0.117,1.207-0.35,2.119c-0.233,0.914-0.5,1.954-0.798,3.122
		c-0.299,1.167-0.741,2.669-1.327,4.504c-0.585,1.835-0.985,3.4-1.2,4.695c-0.215,1.295-0.485,2.582-0.812,3.859
		c-0.327,1.278-0.49,2.439-0.49,3.484c0,1.022,0.114,1.834,0.341,2.437c0.227,0.602,0.693,0.903,1.397,0.903
		c0.818,0,1.727-0.284,2.728-0.853c1-0.567,2.011-1.255,3.034-2.062c1.022-0.807,2.022-1.642,3-2.506
		c0.977-0.863,1.841-1.602,2.591-2.216V55.911z M99.018,20.137c0-0.527,0.113-1.124,0.341-1.789
		c0.227-0.665,0.597-1.291,1.108-1.875c0.511-0.585,1.193-1.078,2.045-1.48c0.852-0.402,1.914-0.603,3.187-0.603
		c0.795,0,1.545,0.092,2.25,0.275c0.704,0.184,1.317,0.465,1.841,0.843c0.522,0.378,0.938,0.877,1.244,1.497s0.46,1.354,0.46,2.202
		c0,0.781-0.125,1.538-0.375,2.271s-0.647,1.388-1.193,1.961c-0.545,0.573-1.233,1.038-2.063,1.394
		c-0.83,0.355-1.824,0.533-2.982,0.533c-2,0-3.477-0.476-4.432-1.428C99.495,22.988,99.018,21.72,99.018,20.137z"/>
	<path fill="#161D25" d="M122.486,63.171c-2.105,0-3.952-0.386-5.542-1.159c-1.59-0.772-2.923-1.807-3.998-3.102
		c-1.075-1.295-1.888-2.795-2.437-4.5c-0.549-1.705-0.823-3.477-0.823-5.318c0-1.318,0.229-2.897,0.685-4.738
		c0.457-1.841,0.954-3.448,1.491-4.824c0.537-1.375,1.199-2.687,1.987-3.937c0.789-1.25,1.702-2.347,2.741-3.29
		c1.04-0.943,2.199-1.692,3.479-2.25c1.279-0.557,2.684-0.835,4.215-0.835c1.377,0,2.654,0.199,3.826,0.597
		c1.173,0.397,2.177,0.949,3.01,1.653c0.834,0.704,1.487,1.54,1.959,2.505c0.471,0.966,0.707,2.006,0.707,3.119
		c0,0.772-0.111,1.534-0.332,2.284c-0.222,0.75-0.652,1.631-1.292,2.642c-0.639,1.011-1.26,1.699-1.862,2.062
		c-0.603,0.364-1.285,0.545-2.047,0.545c-1.149,0-1.892-0.284-2.227-0.852c-0.551-0.886-0.725-1.67-0.521-2.352
		c0.067-0.363,0.271-1.205,0.611-2.522c0.045-0.182,0.057-0.591,0.034-1.227c0-0.545-0.057-1-0.17-1.364
		c-0.113-0.363-0.362-0.545-0.746-0.545c-0.928,0-1.72,0.222-2.376,0.665c-0.656,0.443-1.216,1.023-1.68,1.739
		c-0.464,0.716-0.922,1.727-1.375,3.034c-0.453,1.307-0.774,2.403-0.967,3.29s-0.312,1.733-0.356,2.54
		c-0.045,0.807-0.068,1.483-0.068,2.028c0,0.818,0.074,1.67,0.221,2.557s0.441,1.699,0.882,2.438
		c0.44,0.738,1.012,1.352,1.714,1.841s1.606,0.733,2.715,0.733c1.091,0,2.295-0.335,3.613-1.006c1.318-0.67,2.642-1.517,3.971-2.54
		s2.596-2.147,3.801-3.375c1.205-1.228,2.239-2.386,3.102-3.477l2.352,3.954c-1.704,2.432-3.545,4.602-5.522,6.511
		c-0.841,0.818-1.756,1.614-2.744,2.386c-0.989,0.773-2.023,1.46-3.102,2.063c-1.08,0.602-2.205,1.091-3.375,1.466
		S123.686,63.171,122.486,63.171z"/>
	<path fill="#161D25" d="M148.189,63.171c-2.105,0-3.952-0.386-5.542-1.159c-1.59-0.772-2.923-1.807-3.998-3.102
		c-1.075-1.295-1.888-2.795-2.436-4.5c-0.549-1.705-0.824-3.477-0.824-5.318c0-1.318,0.229-2.897,0.685-4.738
		c0.457-1.841,0.954-3.448,1.491-4.824c0.537-1.375,1.199-2.687,1.987-3.937c0.789-1.25,1.702-2.347,2.741-3.29
		c1.04-0.943,2.199-1.692,3.479-2.25c1.279-0.557,2.684-0.835,4.215-0.835c1.378,0,2.654,0.199,3.826,0.597
		c1.173,0.397,2.177,0.949,3.01,1.653c0.834,0.704,1.487,1.54,1.959,2.505c0.471,0.966,0.707,2.006,0.707,3.119
		c0,0.772-0.111,1.534-0.332,2.284c-0.222,0.75-0.652,1.631-1.292,2.642c-0.639,1.011-1.26,1.699-1.862,2.062
		c-0.603,0.364-1.285,0.545-2.047,0.545c-1.149,0-1.892-0.284-2.227-0.852c-0.551-0.886-0.724-1.67-0.521-2.352
		c0.067-0.363,0.271-1.205,0.61-2.522c0.045-0.182,0.057-0.591,0.034-1.227c0-0.545-0.057-1-0.17-1.364
		c-0.113-0.363-0.362-0.545-0.746-0.545c-0.928,0-1.72,0.222-2.376,0.665c-0.656,0.443-1.216,1.023-1.68,1.739
		c-0.464,0.716-0.922,1.727-1.375,3.034c-0.453,1.307-0.774,2.403-0.967,3.29s-0.312,1.733-0.356,2.54
		c-0.045,0.807-0.067,1.483-0.067,2.028c0,0.818,0.073,1.67,0.22,2.557s0.441,1.699,0.882,2.438
		c0.441,0.738,1.012,1.352,1.714,1.841s1.606,0.733,2.715,0.733c1.091,0,2.295-0.335,3.613-1.006c1.318-0.67,2.642-1.517,3.971-2.54
		s2.597-2.147,3.801-3.375c1.205-1.228,2.239-2.386,3.102-3.477l2.352,3.954c-1.704,2.432-3.545,4.602-5.522,6.511
		c-0.841,0.818-1.756,1.614-2.744,2.386c-0.989,0.773-2.023,1.46-3.102,2.063c-1.08,0.602-2.205,1.091-3.375,1.466
		S149.389,63.171,148.189,63.171z"/>
	<path fill="#161D25" d="M184,55.911c-0.818,0.75-1.835,1.551-3.051,2.403c-1.216,0.853-2.528,1.636-3.938,2.353
		c-1.409,0.716-2.846,1.312-4.312,1.79c-1.466,0.477-2.858,0.716-4.176,0.716c-1.182,0-2.177-0.165-2.983-0.495
		c-0.807-0.329-1.46-0.789-1.96-1.38c-0.5-0.591-0.858-1.313-1.074-2.165c-0.216-0.852-0.324-1.79-0.324-2.813
		c0-1.432,0.158-3.102,0.477-5.011c0.655-3.949,1.076-6.167,1.263-6.654c0.31-0.97,0.929-3.121,1.859-6.451
		c0.862-2.714,1.395-4.481,1.598-5.3c0.111-0.574,0.424-1.091,0.938-1.551c0.469-0.413,0.999-0.753,1.59-1.017
		s1.206-0.459,1.842-0.586c0.636-0.126,1.211-0.189,1.725-0.189c0.938,0,1.574,0.176,1.909,0.528
		c0.334,0.353,0.502,0.824,0.502,1.415c0,0.5-0.116,1.207-0.35,2.119c-0.233,0.914-0.5,1.954-0.798,3.122
		c-0.299,1.167-0.741,2.669-1.327,4.504c-0.585,1.835-0.986,3.4-1.2,4.695c-0.215,1.295-0.485,2.582-0.813,3.859
		c-0.327,1.278-0.49,2.439-0.49,3.484c0,1.022,0.113,1.834,0.341,2.437c0.227,0.602,0.693,0.903,1.397,0.903
		c0.818,0,1.727-0.284,2.727-0.853c1-0.567,2.011-1.255,3.034-2.062c1.022-0.807,2.022-1.642,3-2.506
		c0.977-0.863,1.841-1.602,2.591-2.216V55.911z M168.763,20.137c0-0.527,0.113-1.124,0.341-1.789
		c0.227-0.665,0.596-1.291,1.108-1.875c0.511-0.585,1.193-1.078,2.045-1.48c0.853-0.402,1.915-0.603,3.188-0.603
		c0.795,0,1.545,0.092,2.25,0.275c0.704,0.184,1.317,0.465,1.84,0.843c0.523,0.378,0.938,0.877,1.245,1.497
		c0.307,0.62,0.46,1.354,0.46,2.202c0,0.781-0.125,1.538-0.375,2.271c-0.25,0.734-0.647,1.388-1.193,1.961
		c-0.545,0.573-1.233,1.038-2.063,1.394c-0.83,0.355-1.824,0.533-2.983,0.533c-2,0-3.477-0.476-4.431-1.428
		C169.24,22.988,168.763,21.72,168.763,20.137z"/>
</g>
</svg>
